<?xml version="1.0" encoding="UTF-8" standalone="no"?>
<!-- Created with Inkscape (http://www.inkscape.org/) -->

<svg
   xmlns:dc="http://purl.org/dc/elements/1.1/"
   xmlns:cc="http://creativecommons.org/ns#"
   xmlns:rdf="http://www.w3.org/1999/02/22-rdf-syntax-ns#"
   xmlns:svg="http://www.w3.org/2000/svg"
   xmlns="http://www.w3.org/2000/svg"
   xmlns:xlink="http://www.w3.org/1999/xlink"
   xmlns:sodipodi="http://sodipodi.sourceforge.net/DTD/sodipodi-0.dtd"
   xmlns:inkscape="http://www.inkscape.org/namespaces/inkscape"
   width="155.19447mm"
   height="188.18703mm"
   viewBox="0 0 155.19448 188.18703"
   version="1.1"
   id="svg6067"
   inkscape:version="0.92.4 5da689c313, 2019-01-14"
   sodipodi:docname="lynxGreen.svg">
  <defs
     id="defs6061">
    <linearGradient
       gradientTransform="matrix(1,0,0,0.95289359,4.0309487,-88.865052)"
       inkscape:collect="always"
       xlink:href="#linearGradient6036"
       id="linearGradient6038"
       x1="-21.923052"
       y1="193.97546"
       x2="193.77782"
       y2="147.48439"
       gradientUnits="userSpaceOnUse" />
    <linearGradient
       inkscape:collect="always"
       id="linearGradient6036">
      <stop
         style="stop-color:#668000;stop-opacity:1;"
         offset="0"
         id="stop6032" />
      <stop
         style="stop-color:#668000;stop-opacity:0;"
         offset="1"
         id="stop6034" />
    </linearGradient>
  </defs>
  <sodipodi:namedview
     id="base"
     pagecolor="#000000"
     bordercolor="#666666"
     borderopacity="1.0"
     inkscape:pageopacity="1"
     inkscape:pageshadow="2"
     inkscape:zoom="0.35"
     inkscape:cx="378.99614"
     inkscape:cy="166.69029"
     inkscape:document-units="mm"
     inkscape:current-layer="layer1"
     showgrid="false"
     objecttolerance="10000"
     inkscape:window-width="1280"
     inkscape:window-height="960"
     inkscape:window-x="0"
     inkscape:window-y="27"
     inkscape:window-maximized="1"
     showguides="false"
     inkscape:snap-perpendicular="true"
     inkscape:snap-tangential="true"
     guidetolerance="14"
     inkscape:showpageshadow="false"
     showborder="false" />
  <metadata
     id="metadata6064">
    <rdf:RDF>
      <cc:Work
         rdf:about="">
        <dc:format>image/svg+xml</dc:format>
        <dc:type
           rdf:resource="http://purl.org/dc/dcmitype/StillImage" />
        <dc:title></dc:title>
      </cc:Work>
    </rdf:RDF>
  </metadata>
  <g
     inkscape:label="Layer 1"
     inkscape:groupmode="layer"
     id="layer1"
     transform="translate(-5.5572704,-4.7497706)">
    <path
       style="fill:url(#linearGradient6038);fill-opacity:1;stroke:#2b0000;stroke-width:1.21806586;stroke-opacity:1"
       d="m 7.1449564,191.61533 c -2.1030761,-1.99399 -0.6478871,-12.64943 2.7656998,-20.25138 1.9798188,-4.409 4.2380758,-11.93204 5.0183458,-16.71797 1.825982,-11.19994 6.204402,-19.855 14.30104,-28.26981 6.802047,-7.06932 16.690529,-13.82241 18.60086,-12.703 0.618196,0.36223 -2.700959,4.49257 -7.375863,9.17849 -9.112197,9.13366 -15.798829,19.44468 -15.152532,23.36575 0.360578,2.18768 1.131113,1.90775 8.196644,-2.97769 12.109381,-8.37302 12.653203,-6.37959 1.198335,4.39259 -10.154906,9.54976 -18.378998,21.70859 -18.378998,27.17231 0,2.99067 0.541834,2.85245 10.248363,-2.61504 18.52782,-10.43629 36.834712,-14.30719 55.687526,-11.77476 6.0482,0.81242 14.092793,2.45869 17.876883,3.65838 13.44195,4.26157 19.37775,1.54183 11.14841,-5.1081 l -4.26827,-3.4491 11.25845,0.70893 c 14.70388,0.92579 18.45665,-0.73257 23.41912,-10.34897 2.28747,-4.43273 4.80749,-7.43447 7.24461,-8.62938 2.05535,-1.00774 2.80157,-2.28163 2.80157,-2.67518 0,-0.39362 -2.10711,-3.36004 -5.82577,-6.74775 -8.91387,-8.12059 -12.00285,-16.88579 -12.00285,-34.058864 0,-10.247617 -0.42894,-12.668864 -3.24411,-18.311004 -4.92601,-9.872645 -15.38018,-19.852717 -25.97194,-24.794128 -8.821992,-4.115729 -25.687248,-7.636337 -33.302975,-7.421755 -4.721966,-0.02496 -7.400957,-1.111599 -4.587404,-2.799632 0,0 6.56204,-3.377776 9.773912,-3.387773 5.110814,-0.0159 6.672424,-0.693413 12.509384,-5.427377 6.840392,-5.547757 14.336673,-10.184489 20.942853,-13.378398 3.35222,-1.620701 9.77719,-4.146535 14.88347,-6.448144 1.48041,-0.667283 2.57337,-1.639406 3.69723,-2.4461067 1.3615,-0.9772876 1.46273,-1.0368626 3.38603,-2.2198609 0,0 2.64659,-1.788648 3.00381,-1.7704572 0.54927,0.028015 -1.37012,2.3221826 -1.87925,2.7373965 -1.66099,1.3545858 -4.73878,3.7044403 -4.92669,4.0406403 -0.23107,0.413442 5.16304,-3.1528294 5.44382,-3.1166194 1.51828,0.195791 -5.17137,5.4232024 -5.06811,6.6630984 1.0886,13.07148 0.0373,19.846133 -1.77378,28.607714 l -2.11369,10.225188 4.51886,5.005464 c 2.48536,2.752995 6.47003,8.559348 8.85482,12.902951 4.05752,7.3903 4.37068,8.77351 4.87599,21.537197 0.40807,10.30712 1.15916,14.95327 3.07411,19.01614 2.9873,6.33789 7.51029,11.87684 11.62128,14.65694 2.8009,3.09695 2.51294,6.40692 2.51294,6.40692 -0.52366,4.40409 -3.85983,7.37917 -7.26361,9.08038 -1.35484,0.40782 -3.41607,2.64485 -4.58049,4.97144 -3.46412,6.92146 -10.37688,13.31125 -16.0875,14.87032 -3.06302,0.83626 -6.60719,3.00358 -8.67433,5.30457 -5.7238,6.37117 -10.19656,6.82653 -27.040602,2.75295 -31.852531,-7.70317 -55.748338,-2.53754 -80.709974,17.4472 -4.864703,3.89482 -7.0179628,4.67908 -8.6356276,3.14529 z M 120.49112,42.484293 c 0.56339,-3.186133 0.85698,-8.518315 0.65244,-11.849279 -0.34411,-5.604196 -0.62559,-6.084035 -3.77091,-6.42784 -3.62184,-0.395908 -18.534031,7.095751 -22.596862,11.352288 -2.599873,2.723837 -1.55688,3.914974 5.355472,6.116111 2.40804,0.766812 6.91141,2.687178 10.0075,4.267478 7.69843,3.929445 9.13057,3.450969 10.35236,-3.458758 z m -17.47536,60.077817 c -0.43436,-1.1416 -3.160361,-2.47361 -4.424432,-4.205155 -1.264039,-1.731532 -0.96195,-4.751702 -0.96195,-5.466419 0,-1.115115 9.139742,0.685453 13.539492,2.067178 0.66893,0.210074 -4.12085,4.003185 -3.61903,4.200462 0.53235,0.209294 5.73908,-2.429259 6.00104,-2.255947 2.39902,1.587321 6.78503,5.298781 5.984,6.527631 -0.43297,0.66428 -4.1492,1.20773 -8.25825,1.20773 -3.4141,0 -5.41632,-0.13501 -6.62363,-0.55997 -0.90754,-0.31944 -1.36593,-0.80271 -1.63722,-1.51563 z M 23.812554,85.801826 C 24.395409,80.695518 19.187727,84.367512 16.030938,49.651664 18.016269,38.911105 20.2911,38.797616 23.371462,32.959311 25.803394,28.349994 29.223237,22.790936 30.971093,20.605865 33.661319,17.242724 8.7182021,3.846412 26.042322,11.213442 26.488606,11.40323 41.428957,18.767505 27.531308,9.8572457 26.425408,9.1482167 25.122179,6.5860573 26.268426,7.1248519 34.745738,11.109605 53.668693,26.535304 58.93429,33.301229 64.607716,40.591188 69.971582,51.790424 68.471085,53.213141 68.118163,53.547827 65.606309,50.977968 62.88912,47.502527 53.233297,35.152093 42.204622,27.212211 37.274464,29.061758 34.863583,29.966206 26.137337,42.038729 23.552334,49.46806 21.08434,58.865431 23.094479,63.830711 23.86087,72.291101 27.293822,77.56085 23.81255,85.801826 23.81255,85.801826 Z m 12.07784,-2.233383 C 34.24336,81.041694 32.44644,66.543874 33.136121,61.346547 c 1.015307,-7.651328 4.239141,-17.21448 6.706984,-19.895525 1.833205,-1.991557 2.169361,-1.895962 6.25661,1.779091 5.559478,4.998832 11.49967,13.73196 11.49967,16.906592 0,1.441281 -2.918185,5.187475 -6.979412,8.959743 -3.838686,3.565546 -8.072035,8.484279 -9.407451,10.930537 -2.340951,4.288194 -4.080743,5.445893 -5.322128,3.541458 z"
       id="path10961"
       inkscape:connector-curvature="0"
       sodipodi:nodetypes="cssccscccscsscccscscsscccccsssssssssccscccccccccccccccscccccsssccssccccscsssscccccccccccsccc" />
  </g>
</svg>
